<svg height="512pt" viewBox="-73 0 512 512" width="512pt" xmlns="http://www.w3.org/2000/svg"><path d="m353.773438 46.941406c-7.332032-6.457031-17.066407-9.457031-26.726563-8.222656-4.921875.625-9.953125.945312-14.949219.945312-23.703125 0-46.535156-7.035156-66.03125-20.34375-18.507812-12.640624-40.417968-19.320312-63.355468-19.320312-22.941407 0-44.851563 6.679688-63.363282 19.320312-19.492187 13.308594-42.324218 20.34375-66.027344 20.34375-4.996093 0-10.027343-.316406-14.953124-.945312-9.652344-1.230469-19.390626 1.765625-26.722657 8.222656-7.398437 6.519532-11.644531 15.910156-11.644531 25.765625v231.867188c0 40.125 17.851562 77.660156 48.976562 102.976562l124.265626 101.085938c2.757812 2.242187 6.113281 3.363281 9.46875 3.363281 3.355468 0 6.707031-1.121094 9.464843-3.363281l124.265625-101.085938c31.125-25.316406 48.980469-62.851562 48.980469-102.976562v-231.867188c-.003906-9.855469-4.246094-19.246093-11.648437-25.765625zm-91.507813 204.363282v100.273437c0 6.148437-4.984375 11.132813-11.132813 11.132813h-136.847656c-6.148437 0-11.132812-4.984376-11.132812-11.132813v-100.273437c0-6.148438 4.984375-11.132813 11.132812-11.132813v-36.421875c0-37.546875 29.816406-68.882812 67.359375-69.453125 38.214844-.582031 69.488281 30.332031 69.488281 68.414063v37.460937c6.148438 0 11.132813 4.984375 11.132813 11.132813zm0 0"/><path d="m182.710938 164.289062c-21.1875 0-38.425782 17.234376-38.425782 38.421876v37.460937h76.847656v-37.460937c0-21.1875-17.238281-38.421876-38.421874-38.421876zm0 0"/><path d="m200.386719 290.863281c0-9.761719-7.914063-17.679687-17.675781-17.679687-9.765626 0-17.679688 7.917968-17.679688 17.679687 0 3.660157 1.109375 7.058594 3.015625 9.878907-.21875 1.015624-.335937 2.0625-.335937 3.144531v18.675781c0 8.285156 6.714843 15 15 15 8.28125 0 15-6.714844 15-15v-18.675781c0-1.082031-.121094-2.132813-.339844-3.144531 1.90625-2.820313 3.015625-6.21875 3.015625-9.878907zm0 0"/></svg>